<?xml version="1.0" encoding="UTF-8"?>
<svg width="122px" height="79px" viewBox="0 0 122 79" version="1.1" xmlns="http://www.w3.org/2000/svg" xmlns:xlink="http://www.w3.org/1999/xlink">
    <!-- Generator: Sketch 49 (51002) - http://www.bohemiancoding.com/sketch -->
    <title>logo-ad-xs</title>
    <desc>Created with Sketch.</desc>
    <defs></defs>
    <g id="Architectural-Digest" stroke="none" stroke-width="1" fill="none" fill-rule="evenodd">
        <g id="eCap_architecturaldigest_unveil_v2" transform="translate(-512.000000, -233.000000)" fill="#000000" fill-rule="nonzero">
            <g id="email-capture" transform="translate(263.000000, 135.000000)">
                <g id="content" transform="translate(76.000000, 98.000000)">
                    <g id="logo-ad-xs" transform="translate(173.000000, 0.000000)">
                        <path d="M0,79 L13.0500298,79 L13.0500298,78.4213614 L7.01395448,78.4213614 C7.49998369,77.1690839 16.0709779,53.6118723 16.0709779,53.6118723 L40.8584676,53.6118723 C40.8584676,53.6118723 49.3334201,76.9301436 49.8689253,78.4213614 L41.7839604,78.4213614 L41.7839604,78.9971212 L63.4078947,78.9971212 L34.9126133,0 L6.38240754,78.4213614 L0,78.4213614 L0,78.9971212 L0,79 Z M16.2164956,53.0332337 L28.4399847,19.4606807 L40.6634739,53.0361125 L16.2164956,53.0361125 L16.2164956,53.0332337 Z" id="Shape"></path>
                        <path d="M63.4546017,79 L82.4195213,79 C104.302121,79 122,66.2350728 122,40.3696768 C122,14.8398225 105.078038,1.5959596 82.1754126,1.5959596 L55.3815789,1.5959596 L55.3815789,2.16953529 L63.4546017,2.16953529 L63.4546017,79 Z M75.9506412,78.4723104 L75.9506412,2.21542135 L80.8124724,2.21542135 C86.5519325,2.21542135 91.3178638,2.55383101 94.8661579,4.23440781 C104.49392,8.74271279 107.801012,20.4063746 107.801012,40.3696768 C107.801012,59.3263536 102.988584,70.5540979 95.1102665,75.6388464 C91.4631666,77.8958668 86.4066297,78.4723104 81.9313039,78.4723104 L75.9506412,78.4723104 Z" id="Shape"></path>
                    </g>
                </g>
            </g>
        </g>
    </g>
</svg>